<?xml version="1.0" standalone="no"?>
<!DOCTYPE svg PUBLIC "-//W3C//DTD SVG 20010904//EN"
 "http://www.w3.org/TR/2001/REC-SVG-20010904/DTD/svg10.dtd">
<svg version="1.0" xmlns="http://www.w3.org/2000/svg"
 width="300.000000pt" height="179.000000pt" viewBox="0 0 300.000000 179.000000"
 preserveAspectRatio="xMidYMid meet">
<metadata>
Created by potrace 1.10, written by Peter Selinger 2001-2011
</metadata>
<g transform="translate(0.000000,179.000000) scale(0.100000,-0.100000)"
fill="#000000" stroke="none">
<path d="M661 1759 c-256 -66 -481 -263 -589 -512 -42 -97 -72 -231 -55 -248
9 -9 13 -5 18 17 60 303 217 520 471 652 52 27 173 66 267 86 15 4 27 11 27
16 0 15 -57 11 -139 -11z"/>
<path d="M992 1768 c2 -6 33 -17 67 -24 272 -56 485 -217 610 -462 20 -40 51
-120 51 -134 0 -5 -42 -8 -92 -8 l-93 0 -95 -60 c-102 -65 -108 -65 -109 2 -1
40 -26 58 -80 58 -48 0 -81 -20 -81 -48 0 -18 -9 -15 -49 16 l-36 27 -215 3
c-270 4 -250 19 -250 -187 -1 -169 9 -171 -107 14 -105 167 -114 175 -183 175
-40 0 -62 -5 -76 -18 -10 -10 -62 -86 -114 -170 -60 -95 -101 -150 -110 -149
-22 3 -24 -35 -6 -116 70 -310 332 -578 644 -658 81 -21 132 -24 132 -10 0 5
-24 14 -52 21 -291 61 -509 228 -632 483 -19 40 -41 96 -50 125 l-15 52 27 0
c52 0 97 19 117 50 23 35 43 40 153 36 81 -2 83 -3 118 -39 40 -41 87 -55 135
-38 17 6 36 8 41 5 5 -3 33 -6 61 -6 65 1 87 23 87 88 l0 44 57 0 57 0 61 -67
c61 -66 63 -68 116 -70 32 -1 63 4 75 12 16 10 24 11 32 3 7 -7 34 -12 61 -12
64 -1 84 17 83 76 -2 70 7 74 69 31 154 -106 147 -103 234 -103 44 0 86 -4 93
-8 10 -7 7 -26 -15 -88 -105 -294 -323 -487 -647 -569 -105 -27 -97 -46 12
-26 262 48 518 253 633 506 58 130 74 205 74 370 0 125 -4 163 -23 228 -74
260 -244 464 -478 578 -120 58 -303 100 -292 67z m-485 -846 l122 -192 -59 0
c-59 0 -60 1 -85 40 l-25 40 -130 0 -129 0 -23 -40 c-23 -40 -23 -40 -85 -40
l-62 0 106 168 c150 238 132 217 194 216 l54 0 122 -192z m590 172 c35 -22 56
-61 56 -104 0 -51 -25 -87 -73 -109 l-39 -17 59 -59 c33 -33 60 -63 60 -67 0
-4 -28 -8 -62 -8 l-63 0 -58 70 -59 70 -79 0 -79 0 0 -70 0 -70 -55 0 -55 0 0
193 0 192 212 -3 c165 -3 218 -7 235 -18z m210 -56 c-3 -43 -3 -78 1 -78 3 0
13 6 21 13 9 7 60 41 113 75 l96 62 97 4 c57 3 94 1 88 -5 -4 -4 -68 -44 -140
-87 l-132 -79 149 -99 c81 -55 149 -103 149 -107 1 -4 -40 -6 -91 -5 l-91 3
-129 87 c-71 49 -131 88 -132 88 -2 0 -1 -41 2 -91 l5 -90 -57 3 -57 3 0 185
c0 102 0 187 0 190 1 3 26 6 57 6 l57 0 -6 -78z m438 25 c13 -31 19 -263 7
-275 -8 -8 -22 -4 -49 15 -21 15 -69 49 -108 75 -38 27 -70 55 -70 62 0 11
189 139 206 140 4 0 10 -8 14 -17z m-575 -218 c0 -30 -4 -55 -8 -55 -5 0 -21
13 -37 30 l-28 30 29 25 c16 14 32 25 37 25 4 0 7 -25 7 -55z"/>
<path d="M293 957 l-32 -52 35 -3 c19 -2 49 -2 68 0 l35 3 -32 52 c-18 29 -34
52 -37 52 -3 0 -19 -23 -37 -52z"/>
<path d="M760 995 l0 -35 135 0 c116 0 137 2 142 16 3 9 2 24 -4 33 -8 13 -34
16 -142 19 l-131 3 0 -36z"/>
<path d="M1920 1092 c-53 -26 -70 -70 -70 -180 0 -107 14 -148 59 -175 41 -24
386 -25 431 -2 33 17 60 61 60 100 0 24 -3 25 -53 25 -48 0 -55 -3 -65 -25
-12 -25 -12 -25 -155 -25 -98 0 -147 4 -155 12 -7 7 -12 42 -12 88 0 46 5 81
12 88 8 8 57 12 155 12 143 0 143 0 155 -25 10 -22 17 -25 65 -25 51 0 53 1
53 28 0 39 -20 73 -59 99 -32 22 -43 23 -210 23 -148 0 -182 -3 -211 -18z
m414 -35 c24 -16 34 -46 20 -60 -7 -7 -64 13 -64 23 0 14 -43 21 -135 21 -166
1 -172 1 -199 -25 -24 -21 -26 -30 -26 -102 0 -68 3 -83 24 -109 l24 -30 145
0 145 0 26 28 c30 32 66 36 66 8 0 -11 -12 -29 -26 -40 -25 -20 -40 -21 -210
-21 -177 0 -184 1 -210 23 -26 22 -27 27 -28 129 -1 120 10 153 58 167 17 5
106 8 197 7 138 -2 171 -5 193 -19z"/>
<path d="M2512 1093 c-52 -25 -62 -56 -62 -189 l0 -116 34 -34 34 -34 205 0
205 0 31 29 c17 16 31 39 31 52 0 22 -3 21 -39 -15 l-38 -37 -196 3 c-246 4
-237 -2 -237 159 0 99 2 110 24 136 l24 28 174 2 c189 2 230 -5 254 -42 19
-29 34 -32 34 -7 0 20 -31 52 -67 71 -14 7 -87 11 -200 11 -144 0 -184 -4
-211 -17z"/>
<path d="M2554 1018 c-33 -29 -34 -33 -34 -100 0 -76 17 -119 54 -136 30 -13
255 -14 288 -1 39 16 59 67 57 144 -2 57 -6 68 -31 92 -29 28 -31 28 -165 29
l-135 2 -34 -30z m326 -96 c3 -46 1 -90 -3 -98 -6 -11 -39 -14 -157 -14 -173
0 -170 -2 -170 100 0 103 -4 101 173 98 l152 -3 5 -83z"/>
</g>
</svg>
